<?xml version="1.0" encoding="UTF-8" standalone="no"?>
<!DOCTYPE svg PUBLIC "-//W3C//DTD SVG 1.1//EN" "http://www.w3.org/Graphics/SVG/1.1/DTD/svg11.dtd">
<svg version="1.1" xmlns="http://www.w3.org/2000/svg" xmlns:xlink="http://www.w3.org/1999/xlink" preserveAspectRatio="xMidYMid meet" viewBox="0 0 640 640" width="50" height="50"><defs><path d="M451.88 332.2C407 334.66 361.55 331.41 317.52 322.52C301.96 319.38 285.71 322.57 272.5 331.34C259.16 340.21 250.06 353.72 246.9 369.4C243.73 385.09 246.86 401.08 255.72 414.42C264.58 427.75 278.1 436.84 293.78 440.01C297.54 440.77 327.64 446.85 331.41 447.61C338.61 449.07 345.96 449.81 353.25 449.81C374.87 449.81 395.86 443.46 413.97 431.44C438.42 415.2 455.09 390.4 460.91 361.62C461.27 359.85 464.12 345.73 464.48 343.96C465.09 340.94 464.27 337.81 462.25 335.48C460.23 333.16 457.25 331.9 454.19 332.07C453.73 332.09 452.11 332.18 451.88 332.2ZM402.97 414.88C383.12 428.04 358.75 432.84 335.33 428.13C331.57 427.37 301.47 421.29 297.71 420.53C287.21 418.42 278.18 412.34 272.27 403.43C266.35 394.52 264.25 383.82 266.37 373.34C268.49 362.85 274.57 353.81 283.48 347.89C290.08 343.52 297.73 341.2 305.59 341.2C308.26 341.2 310.93 341.47 313.57 342.01C355.83 350.54 399.08 354.11 442.47 352.53C442.4 352.87 442.05 354.59 441.43 357.68C429.15 386.94 416.33 406.01 402.97 414.88Z" id="aorwoiR05"></path><path d="M249.89 79.35L254.02 79.78L258.1 80.36L262.14 81.09L266.13 81.97L270.07 83L273.95 84.17L277.78 85.48L281.55 86.92L285.25 88.5L288.88 90.22L292.44 92.06L295.93 94.02L299.35 96.11L302.68 98.31L305.93 100.63L309.09 103.06L312.17 105.6L315.15 108.25L318.03 111L320.82 113.85L323.51 116.8L326.09 119.84L328.56 122.97L330.92 126.19L333.17 129.49L335.3 132.87L337.31 136.34L339.19 139.88L340.95 143.49L342.58 147.16L344.07 150.91L345.43 154.72L346.65 158.59L347.73 162.51L348.66 166.49L349.44 170.52L350.07 174.59L350.54 178.71L350.86 182.87L350.97 185.14L351.03 187.4L351.04 189.66L351.01 191.91L350.94 194.15L350.82 196.38L350.65 198.61L350.45 200.82L350.2 203.03L349.9 205.22L349.56 207.41L349.18 209.58L348.76 211.74L348.29 213.89L347.79 216.03L347.24 218.15L346.65 220.26L346.01 222.36L345.34 224.44L344.63 226.5L343.87 228.55L343.07 230.59L342.24 232.6L341.36 234.6L340.45 236.58L339.5 238.54L338.5 240.48L337.47 242.4L336.4 244.3L335.29 246.18L334.15 248.04L332.96 249.87L331.74 251.69L330.48 253.48L329.19 255.24L327.85 256.99L326.48 258.7L325.08 260.4L323.64 262.06L322.16 263.7L422.51 273.18L424.88 273.35L427.23 273.42L429.56 273.38L431.86 273.25L434.14 273.02L436.39 272.7L438.6 272.28L440.79 271.77L442.94 271.18L445.05 270.49L447.12 269.73L449.15 268.88L451.14 267.95L453.08 266.94L454.98 265.85L456.83 264.69L458.62 263.46L460.36 262.16L462.05 260.79L463.68 259.36L465.25 257.86L466.76 256.29L468.2 254.67L469.58 252.99L470.89 251.26L472.14 249.47L473.31 247.63L474.4 245.73L475.42 243.8L476.36 241.81L477.23 239.78L478.01 237.71L478.7 235.61L479.31 233.46L479.83 231.28L480.27 229.06L480.6 226.81L480.85 224.54L481 222.24L481.05 219.91L481.05 219.63L481.06 219.36L481.08 219.08L481.11 218.81L481.14 218.54L481.18 218.27L481.23 218.01L481.29 217.74L481.35 217.48L481.42 217.22L481.49 216.96L481.58 216.71L481.67 216.45L481.76 216.2L481.87 215.96L481.97 215.71L482.09 215.47L482.21 215.24L482.34 215L482.48 214.77L482.62 214.55L482.76 214.32L482.92 214.1L483.07 213.89L483.24 213.68L483.41 213.47L483.58 213.27L483.77 213.08L483.95 212.88L484.15 212.7L484.34 212.51L484.55 212.34L484.75 212.16L484.97 212L485.19 211.83L485.41 211.68L485.64 211.53L485.87 211.38L486.11 211.25L486.35 211.11L486.6 210.99L486.85 210.87L487.1 210.76L487.35 210.66L487.6 210.56L487.86 210.47L488.12 210.39L488.38 210.32L488.64 210.25L488.9 210.19L489.16 210.14L489.43 210.09L489.69 210.05L489.96 210.02L490.22 210L490.49 209.98L490.76 209.97L491.02 209.97L491.29 209.97L491.55 209.98L491.82 210L492.09 210.03L492.35 210.06L492.61 210.1L492.88 210.15L493.14 210.2L493.4 210.26L493.66 210.33L493.91 210.41L494.17 210.49L494.42 210.58L494.68 210.68L494.92 210.78L495.17 210.89L495.42 211.01L495.66 211.13L495.9 211.27L496.13 211.4L496.37 211.55L496.6 211.7L498.7 213.17L500.78 214.67L502.84 216.21L504.87 217.77L506.88 219.37L508.86 221L510.81 222.66L512.73 224.36L514.63 226.08L516.5 227.83L518.34 229.61L520.15 231.42L521.93 233.26L523.69 235.13L525.41 237.02L527.1 238.94L528.77 240.89L530.4 242.86L532 244.86L533.57 246.88L535.11 248.93L536.61 251L538.08 253.09L539.52 255.21L540.93 257.35L542.3 259.51L543.64 261.69L544.94 263.89L546.21 266.11L547.44 268.36L548.63 270.62L549.79 272.9L550.92 275.2L552 277.52L553.05 279.85L554.06 282.21L555.03 284.57L555.97 286.96L556.87 289.36L557.72 291.77L558.21 293.27L558.3 293.55L558.39 293.83L558.48 294.1L558.57 294.38L558.66 294.66L558.75 294.93L558.84 295.21L558.93 295.48L559.02 295.76L559.1 296.03L559.19 296.3L559.27 296.57L559.36 296.85L559.44 297.12L559.52 297.39L559.6 297.66L559.69 297.93L559.77 298.2L559.85 298.47L559.93 298.74L560.01 299.01L560.09 299.28L560.16 299.54L560.24 299.81L560.32 300.08L560.4 300.35L560.47 300.62L560.55 300.88L560.62 301.15L560.7 301.42L560.77 301.69L560.84 301.95L560.92 302.22L560.99 302.49L561.06 302.76L561.13 303.02L561.2 303.29L561.27 303.56L561.34 303.83L561.41 304.1L561.41 304.1L561.41 304.1L561.42 304.11L561.42 304.12L561.42 304.14L561.42 304.15L561.43 304.17L561.44 304.21L561.44 304.23L561.45 304.25L561.46 304.27L561.46 304.3L561.47 304.35L561.49 304.41L561.5 304.47L561.51 304.49L561.53 304.55L561.53 304.58L561.55 304.64L561.56 304.69L561.57 304.74L561.59 304.78L561.6 304.82L561.6 304.85L561.61 304.88L561.61 304.89L561.61 304.89L561.64 305.02L561.67 305.14L561.71 305.26L561.74 305.39L561.77 305.51L561.79 305.63L561.82 305.76L561.85 305.88L561.88 306L561.91 306.13L561.94 306.25L561.97 306.37L562 306.5L562.03 306.62L562.06 306.75L562.09 306.87L562.12 306.99L562.15 307.12L562.18 307.24L562.21 307.37L562.23 307.49L562.26 307.62L562.29 307.74L562.32 307.87L562.35 307.99L562.38 308.12L562.41 308.24L562.43 308.37L562.46 308.49L562.49 308.61L562.52 308.74L562.54 308.86L562.57 308.99L562.6 309.11L562.63 309.24L562.65 309.36L562.68 309.49L562.71 309.61L562.74 309.74L562.76 309.86L563.3 312.42L563.34 312.64L563.36 312.76L563.39 312.87L563.41 312.98L563.43 313.09L563.45 313.2L563.47 313.31L563.5 313.42L563.52 313.53L563.54 313.65L563.56 313.76L563.58 313.87L563.61 313.98L563.63 314.09L563.65 314.2L563.67 314.32L563.69 314.43L563.72 314.54L563.74 314.65L563.76 314.77L563.78 314.88L563.8 314.99L563.82 315.1L563.84 315.22L563.86 315.33L563.89 315.44L563.91 315.56L563.93 315.67L563.95 315.78L563.97 315.89L563.99 316.01L564.01 316.12L564.03 316.23L564.05 316.35L564.07 316.46L564.09 316.57L564.1 316.69L564.12 316.8L564.14 316.91L564.16 317.01L564.18 317.11L564.19 317.21L564.21 317.31L564.23 317.41L564.25 317.51L564.26 317.61L564.28 317.72L564.3 317.82L564.31 317.92L564.33 318.02L564.35 318.12L564.36 318.22L564.38 318.32L564.39 318.43L564.41 318.53L564.43 318.63L564.44 318.73L564.46 318.84L564.47 318.94L564.49 319.04L564.51 319.14L564.52 319.25L564.54 319.35L564.55 319.45L564.57 319.56L564.58 319.66L564.6 319.76L564.61 319.87L564.63 319.97L564.65 320.08L564.66 320.18L564.68 320.28L564.69 320.39L564.7 320.49L564.72 320.6L564.73 320.7L564.75 320.81L564.76 320.91L564.78 321.02L564.93 321.91L564.95 321.98L564.98 322.06L565 322.13L565.02 322.21L565.05 322.29L565.07 322.36L565.09 322.44L565.11 322.52L565.13 322.6L565.15 322.67L565.17 322.75L565.19 322.83L565.21 322.91L565.23 322.99L565.24 323.07L565.26 323.15L565.27 323.23L565.29 323.3L565.3 323.38L565.32 323.46L565.33 323.54L565.34 323.63L565.35 323.71L565.37 323.79L565.38 323.87L565.39 323.95L565.4 324.03L565.4 324.11L565.41 324.19L565.42 324.28L565.43 324.36L565.43 324.44L565.44 324.52L565.44 324.61L565.44 324.69L565.45 324.77L565.45 324.86L565.45 324.94L565.45 325.03L565.45 325.11L565.45 325.12L565.45 325.15L565.45 325.18L565.45 325.19L565.45 325.22L565.45 325.25L565.45 325.27L565.45 325.29L565.45 325.32L565.45 325.34L565.45 325.38L565.45 325.41L565.45 325.45L565.44 325.48L565.44 325.52L565.44 325.57L565.44 325.61L565.44 325.66L565.89 330.11L566.22 334.55L566.43 338.99L566.52 343.41L566.49 347.83L566.33 352.23L566.06 356.62L565.67 360.98L565.17 365.33L564.55 369.66L563.81 373.96L562.96 378.24L562 382.49L560.92 386.71L559.73 390.89L558.44 395.04L557.03 399.16L555.52 403.24L553.9 407.27L552.17 411.26L550.33 415.21L548.39 419.11L546.35 422.96L544.21 426.76L541.96 430.51L539.61 434.2L537.17 437.83L534.62 441.41L531.98 444.92L529.23 448.37L526.4 451.75L523.46 455.06L520.44 458.3L517.31 461.47L514.1 464.57L510.8 467.59L507.4 470.53L503.92 473.39L500.34 476.17L496.68 478.86L494.31 480.53L491.92 482.16L489.51 483.74L487.08 485.29L484.63 486.8L482.16 488.26L479.67 489.69L477.16 491.07L474.64 492.42L472.1 493.72L469.54 494.98L466.96 496.21L464.37 497.39L461.76 498.53L459.13 499.62L456.49 500.68L453.84 501.69L451.17 502.67L448.48 503.6L445.79 504.48L443.07 505.33L440.35 506.13L437.61 506.9L434.86 507.61L432.1 508.29L429.33 508.92L426.54 509.51L423.75 510.06L420.94 510.57L418.12 511.03L415.3 511.45L412.46 511.82L409.62 512.15L406.77 512.44L403.91 512.68L401.04 512.88L398.16 513.04L395.28 513.15L392.39 513.21L389.49 513.24L260.17 513.24L255.14 513.13L250.16 512.83L245.24 512.33L240.38 511.63L235.58 510.75L230.85 509.68L226.18 508.43L221.6 507L217.09 505.39L212.66 503.62L208.32 501.68L204.07 499.58L199.92 497.32L195.87 494.91L191.91 492.34L188.07 489.63L184.33 486.78L180.71 483.79L177.21 480.67L173.83 477.41L170.57 474.03L167.45 470.53L164.46 466.91L161.61 463.17L158.9 459.33L156.34 455.37L153.92 451.32L151.66 447.17L149.56 442.92L147.62 438.58L145.85 434.15L144.25 429.64L142.82 425.05L141.56 420.39L140.49 415.66L139.61 410.86L138.91 406L138.41 401.07L138.11 396.1L138.01 391.07L138.04 388L138.15 384.94L138.33 381.89L138.58 378.85L138.89 375.83L139.28 372.82L139.74 369.83L140.26 366.86L140.85 363.9L141.5 360.96L142.23 358.04L143.01 355.14L143.87 352.27L144.78 349.41L145.76 346.58L146.8 343.78L147.91 341L149.07 338.25L150.3 335.53L151.59 332.84L152.94 330.17L154.34 327.54L155.81 324.94L157.33 322.38L158.91 319.85L160.55 317.35L162.24 314.89L163.99 312.47L165.79 310.09L167.65 307.74L169.56 305.44L171.53 303.18L173.55 300.96L175.61 298.79L177.74 296.66L179.91 294.58L182.13 292.54L184.4 290.55L186.72 288.61L189.08 286.73L188.02 286.15L186.96 285.56L185.91 284.96L184.87 284.35L183.83 283.73L182.8 283.1L181.78 282.45L180.77 281.79L179.76 281.12L178.76 280.44L177.77 279.75L176.79 279.05L175.81 278.34L174.85 277.61L173.89 276.88L172.94 276.13L171.99 275.38L171.06 274.61L170.13 273.84L169.22 273.05L168.31 272.25L167.41 271.45L166.51 270.63L165.63 269.8L164.75 268.97L163.89 268.12L163.03 267.27L162.18 266.4L161.34 265.53L160.51 264.64L159.69 263.75L158.88 262.85L158.07 261.94L157.28 261.02L156.49 260.09L155.72 259.16L154.95 258.21L154.19 257.26L153.45 256.3L152.71 255.33L152.48 255.38L152.25 255.43L152.02 255.48L151.78 255.53L151.55 255.58L151.31 255.62L151.07 255.67L150.84 255.71L150.6 255.76L150.36 255.8L150.11 255.84L149.87 255.88L149.62 255.92L149.38 255.96L149.13 256L148.88 256.03L148.64 256.07L148.39 256.1L148.14 256.13L147.89 256.17L147.63 256.2L147.38 256.22L147.13 256.25L146.87 256.28L146.62 256.3L146.36 256.32L146.1 256.35L145.85 256.37L145.59 256.38L145.33 256.4L145.07 256.42L144.81 256.43L144.56 256.44L144.3 256.45L144.04 256.46L143.77 256.47L143.51 256.48L143.25 256.48L142.99 256.48L142.73 256.48L136.12 256.48L135.01 256.46L133.91 256.39L132.83 256.28L131.75 256.13L130.69 255.94L129.65 255.7L128.62 255.42L127.61 255.11L126.61 254.75L125.63 254.36L124.68 253.93L123.74 253.47L122.82 252.97L121.93 252.44L121.05 251.87L120.2 251.27L119.38 250.65L118.58 249.99L117.81 249.3L117.06 248.58L116.34 247.83L115.65 247.06L114.99 246.26L114.36 245.43L113.77 244.58L113.2 243.71L112.67 242.82L112.17 241.9L111.7 240.96L111.28 240L110.88 239.03L110.53 238.03L110.22 237.02L109.94 235.99L109.7 234.94L109.51 233.88L109.35 232.81L109.24 231.72L109.18 230.63L109.15 229.52L109.15 229.28L109.16 229.05L109.16 228.82L109.17 228.59L109.18 228.36L109.2 228.13L109.21 227.91L109.23 227.68L109.25 227.45L109.27 227.23L109.29 227L109.32 226.77L109.34 226.55L109.37 226.33L109.41 226.1L109.44 225.88L109.47 225.66L109.51 225.44L109.55 225.22L109.59 225L109.63 224.78L109.68 224.56L109.73 224.34L109.77 224.12L109.82 223.9L109.87 223.69L109.93 223.47L109.98 223.26L110.04 223.04L110.1 222.83L110.15 222.62L110.22 222.4L110.28 222.19L110.34 221.98L110.41 221.77L110.47 221.56L110.54 221.35L110.61 221.14L110.68 220.93L110.75 220.72L110.27 220.62L109.79 220.51L109.31 220.4L108.83 220.28L108.35 220.16L107.88 220.04L107.4 219.92L106.93 219.79L106.46 219.66L105.98 219.53L105.51 219.39L105.04 219.26L104.58 219.11L104.11 218.97L103.65 218.82L103.18 218.67L102.72 218.51L102.26 218.35L101.8 218.19L101.34 218.03L100.89 217.86L100.43 217.69L99.98 217.52L99.53 217.34L99.08 217.16L98.63 216.97L98.19 216.79L97.74 216.6L97.3 216.4L96.86 216.21L96.42 216L95.98 215.8L95.55 215.59L95.12 215.38L94.68 215.17L94.26 214.95L93.83 214.73L93.4 214.5L92.98 214.28L92.56 214.05L92.27 213.89L91.99 213.72L91.71 213.56L91.43 213.4L91.16 213.24L90.89 213.08L90.62 212.92L90.35 212.76L90.09 212.59L89.83 212.43L89.57 212.27L89.32 212.1L89.07 211.94L88.82 211.77L88.57 211.61L88.33 211.44L88.09 211.28L87.85 211.11L87.62 210.94L87.38 210.78L87.15 210.61L86.93 210.44L86.7 210.27L86.48 210.1L86.26 209.93L86.05 209.76L85.83 209.59L85.62 209.42L85.41 209.24L85.21 209.07L85 208.9L84.8 208.72L84.6 208.55L84.41 208.37L84.21 208.19L84.02 208.02L83.83 207.84L83.64 207.66L83.46 207.48L83.28 207.3L82.55 206.56L81.85 205.81L81.16 205.05L80.48 204.28L79.83 203.49L79.19 202.7L78.56 201.89L77.96 201.08L77.37 200.25L76.8 199.41L76.24 198.57L75.71 197.71L75.19 196.85L74.69 195.97L74.2 195.09L73.74 194.2L73.29 193.3L72.86 192.39L72.45 191.47L72.06 190.55L71.68 189.62L71.32 188.68L70.98 187.73L70.66 186.78L70.36 185.82L70.08 184.85L69.82 183.88L69.57 182.9L69.35 181.92L69.14 180.93L68.95 179.93L68.79 178.93L68.64 177.93L68.51 176.92L68.4 175.9L68.31 174.89L68.24 173.86L68.19 172.84L68.16 171.81L68.15 170.78L68.15 170.56L68.16 170.35L68.17 170.14L68.19 169.93L68.21 169.71L68.23 169.5L68.26 169.29L68.29 169.09L68.33 168.88L68.38 168.67L68.42 168.47L68.47 168.26L68.53 168.06L68.59 167.86L68.65 167.66L68.72 167.46L68.79 167.26L68.87 167.07L68.95 166.88L69.03 166.68L69.12 166.49L69.22 166.31L69.31 166.12L69.41 165.93L69.52 165.75L69.62 165.57L69.74 165.4L69.85 165.22L69.97 165.05L70.1 164.88L70.22 164.71L70.35 164.54L70.49 164.38L70.63 164.22L70.77 164.06L70.91 163.91L71.06 163.75L71.21 163.61L71.37 163.46L71.53 163.32L71.69 163.18L71.86 163.04L72.02 162.91L72.19 162.78L72.37 162.65L72.54 162.53L72.72 162.41L72.9 162.3L73.08 162.19L73.26 162.09L73.45 161.98L73.63 161.89L73.82 161.79L74.01 161.7L74.2 161.62L74.4 161.54L74.59 161.46L74.79 161.39L74.99 161.32L75.19 161.25L75.39 161.19L75.59 161.14L75.79 161.09L76 161.04L76.2 161L76.41 160.96L76.62 160.92L76.82 160.9L77.03 160.87L77.24 160.85L77.45 160.84L77.66 160.83L77.87 160.82L78.09 160.82L78.3 160.83L78.51 160.84L78.72 160.85L78.94 160.87L79.15 160.89L79.36 160.92L80.72 161.09L82.07 161.25L83.43 161.41L84.79 161.56L86.15 161.69L87.52 161.82L88.88 161.95L90.24 162.06L91.61 162.17L92.98 162.27L94.34 162.36L95.71 162.44L97.08 162.51L98.45 162.58L99.82 162.64L101.19 162.69L102.56 162.74L103.93 162.77L105.3 162.8L106.67 162.82L108.05 162.83L109.42 162.84L110.79 162.83L112.16 162.82L113.53 162.8L114.91 162.78L116.28 162.75L117.65 162.7L119.02 162.66L120.39 162.6L121.76 162.54L123.13 162.47L124.5 162.39L125.87 162.3L127.24 162.21L128.61 162.11L129.97 162L131.34 161.89L132.7 161.76L134.07 161.63L135.09 157.92L136.24 154.26L137.51 150.67L138.89 147.13L140.39 143.66L142 140.26L143.72 136.92L145.55 133.66L147.48 130.46L149.52 127.35L151.65 124.3L153.89 121.34L156.21 118.46L158.63 115.66L161.14 112.95L163.74 110.32L166.42 107.79L169.18 105.34L172.03 102.99L174.95 100.74L177.94 98.58L181.01 96.52L184.14 94.57L187.35 92.72L190.62 90.98L193.95 89.35L197.34 87.82L200.79 86.41L204.29 85.12L207.85 83.94L211.45 82.88L215.1 81.95L218.8 81.13L222.54 80.45L226.32 79.89L230.13 79.46L233.99 79.16L237.87 79L241.78 78.98L245.72 79.09L249.89 79.35ZM235.54 98.98L232.49 99.2L229.46 99.52L226.46 99.94L223.49 100.46L220.55 101.08L217.65 101.79L214.78 102.59L211.95 103.48L209.16 104.47L206.41 105.54L203.71 106.7L201.04 107.95L198.43 109.28L195.87 110.69L193.35 112.19L190.89 113.76L188.48 115.41L186.13 117.14L183.83 118.94L181.6 120.81L179.42 122.76L177.31 124.77L175.26 126.85L173.28 129L171.37 131.22L169.53 133.49L167.76 135.83L166.07 138.23L164.45 140.69L162.91 143.21L161.45 145.78L160.07 148.41L158.77 151.08L157.56 153.81L156.44 156.59L155.4 159.41L154.45 162.29L154.47 162.29L154.49 162.3L154.51 162.3L154.53 162.31L154.55 162.31L154.57 162.32L154.59 162.33L154.6 162.33L154.62 162.34L154.64 162.35L154.66 162.35L154.68 162.36L154.7 162.37L154.71 162.37L154.73 162.38L154.75 162.39L154.77 162.39L154.79 162.4L154.84 162.42L154.88 162.43L154.89 162.44L154.91 162.45L154.93 162.46L154.95 162.46L154.97 162.47L154.99 162.48L155 162.48L155.02 162.49L155.04 162.49L155.06 162.5L155.08 162.51L155.1 162.51L155.11 162.52L155.13 162.53L155.15 162.53L155.17 162.54L155.19 162.54L155.36 162.59L155.53 162.63L155.69 162.68L155.86 162.73L156.03 162.77L156.2 162.82L156.36 162.87L156.53 162.92L156.69 162.97L156.86 163.02L157.03 163.07L157.19 163.12L157.36 163.17L157.52 163.22L157.69 163.28L157.85 163.33L158.02 163.38L158.18 163.44L158.34 163.49L158.51 163.55L158.67 163.61L158.83 163.66L159 163.72L159.16 163.78L159.32 163.84L159.48 163.9L159.64 163.95L159.81 164.02L159.97 164.08L160.13 164.14L160.29 164.2L160.45 164.26L160.61 164.33L160.77 164.39L160.93 164.46L161.09 164.52L161.25 164.59L161.4 164.65L161.56 164.72L161.72 164.79L161.74 164.8L161.76 164.81L161.78 164.82L161.8 164.83L161.82 164.83L161.84 164.84L161.86 164.85L161.88 164.86L161.9 164.87L161.92 164.88L161.93 164.89L161.95 164.9L161.97 164.91L161.99 164.92L162.01 164.93L162.05 164.95L162.07 164.96L162.15 165L162.17 165.01L162.18 165.01L162.22 165.03L162.24 165.04L162.26 165.05L162.28 165.06L162.3 165.07L162.32 165.08L162.34 165.09L162.36 165.1L162.38 165.11L162.4 165.12L162.42 165.13L162.44 165.14L162.46 165.14L162.48 165.15L162.5 165.16L162.65 165.23L162.8 165.3L162.95 165.37L163.1 165.44L163.25 165.51L163.4 165.59L163.55 165.66L163.69 165.73L163.84 165.8L163.99 165.88L164.14 165.95L164.29 166.03L164.43 166.1L164.58 166.18L164.73 166.25L164.87 166.33L165.02 166.41L165.17 166.48L165.31 166.56L165.46 166.64L165.6 166.72L165.75 166.8L165.89 166.88L166.03 166.96L166.18 167.04L166.32 167.12L166.46 167.2L166.61 167.29L166.75 167.37L166.89 167.45L167.03 167.54L167.17 167.62L167.32 167.7L167.46 167.79L167.6 167.87L167.74 167.96L167.88 168.05L168.02 168.13L168.16 168.22L168.3 168.31L168.31 168.32L168.33 168.33L168.35 168.35L168.37 168.36L168.39 168.37L168.41 168.38L168.45 168.4L168.46 168.41L168.48 168.42L168.52 168.45L168.54 168.46L168.56 168.47L168.6 168.49L168.65 168.53L168.69 168.55L168.71 168.56L168.75 168.58L168.78 168.6L168.8 168.62L168.82 168.63L168.84 168.64L168.86 168.65L168.88 168.66L168.9 168.67L168.92 168.68L168.94 168.7L168.95 168.71L168.97 168.72L168.99 168.73L169.01 168.74L169.03 168.76L169.05 168.77L169.19 168.86L169.33 168.96L169.47 169.05L169.61 169.15L169.75 169.25L169.89 169.35L170.03 169.44L170.17 169.54L170.31 169.64L170.45 169.74L170.59 169.84L170.73 169.94L170.86 170.04L171 170.15L171.14 170.25L171.27 170.35L171.41 170.45L171.54 170.56L171.68 170.66L171.81 170.76L171.95 170.87L172.08 170.98L172.22 171.08L172.35 171.19L172.48 171.29L172.61 171.4L172.75 171.51L172.88 171.62L173.01 171.73L173.14 171.83L173.27 171.94L173.4 172.05L173.53 172.16L173.66 172.27L173.79 172.39L173.92 172.5L174.05 172.61L174.17 172.72L174.3 172.83L174.43 172.95L174.45 172.97L174.48 172.99L174.51 173.01L174.53 173.04L174.56 173.06L174.58 173.08L174.61 173.1L174.63 173.13L174.66 173.15L174.68 173.17L174.71 173.19L174.73 173.22L174.76 173.24L174.78 173.26L174.81 173.28L174.83 173.31L174.86 173.33L174.88 173.35L174.91 173.37L174.93 173.4L174.96 173.42L174.98 173.44L175.01 173.46L175.03 173.49L175.06 173.51L175.08 173.53L175.11 173.56L175.13 173.58L175.16 173.6L175.18 173.62L175.21 173.65L175.23 173.67L175.26 173.69L175.28 173.72L175.31 173.74L175.33 173.76L175.36 173.79L175.38 173.81L175.4 173.83L175.43 173.85L175.55 173.97L175.68 174.09L175.8 174.2L175.92 174.32L176.04 174.44L176.16 174.56L176.28 174.67L176.4 174.79L176.52 174.91L176.64 175.03L176.76 175.15L176.88 175.27L177 175.39L177.12 175.51L177.24 175.63L177.35 175.76L177.47 175.88L177.59 176L177.7 176.12L177.82 176.25L177.93 176.37L178.05 176.5L178.16 176.62L178.28 176.74L178.39 176.87L178.5 177L178.62 177.12L178.73 177.25L178.84 177.38L178.95 177.5L179.06 177.63L179.17 177.76L179.28 177.89L179.39 178.02L179.5 178.15L179.61 178.28L179.72 178.41L179.82 178.54L179.93 178.67L180.04 178.8L180.05 178.82L180.07 178.84L180.08 178.86L180.1 178.88L180.12 178.9L180.13 178.93L180.15 178.95L180.16 178.97L180.18 178.99L180.2 179.01L180.21 179.03L180.23 179.05L180.24 179.07L180.26 179.09L180.29 179.13L180.31 179.15L180.32 179.18L180.34 179.2L180.35 179.22L180.37 179.24L180.38 179.26L180.41 179.3L180.51 179.43L180.54 179.47L180.55 179.49L180.57 179.51L180.59 179.53L180.6 179.56L180.62 179.58L180.65 179.62L180.66 179.64L180.76 179.77L180.87 179.91L180.97 180.04L181.07 180.17L181.17 180.31L181.27 180.44L181.37 180.58L181.47 180.71L181.56 180.85L181.66 180.98L181.76 181.12L181.86 181.25L181.95 181.39L182.05 181.53L182.14 181.67L182.24 181.8L182.33 181.94L182.43 182.08L182.52 182.22L182.62 182.36L182.71 182.5L182.8 182.64L182.89 182.78L182.99 182.92L183.08 183.06L183.17 183.2L183.26 183.34L183.35 183.48L183.44 183.63L183.52 183.77L183.61 183.91L183.7 184.05L183.79 184.2L183.87 184.34L183.96 184.49L184.04 184.63L184.13 184.78L184.21 184.92L184.29 185.07L184.38 185.21L184.38 185.23L184.39 185.24L184.4 185.25L184.4 185.26L184.41 185.28L184.42 185.29L184.42 185.3L184.43 185.31L184.44 185.32L184.45 185.35L184.46 185.36L184.47 185.37L184.47 185.38L184.49 185.4L184.5 185.42L184.53 185.47L184.55 185.49L184.56 185.52L184.57 185.53L184.58 185.54L184.58 185.55L184.6 185.57L184.6 185.58L184.61 185.6L184.62 185.61L184.62 185.62L184.63 185.63L184.64 185.64L184.64 185.66L184.65 185.67L184.66 185.68L184.74 185.83L184.82 185.98L184.9 186.14L184.99 186.29L185.07 186.44L185.15 186.6L185.23 186.75L185.31 186.91L185.38 187.06L185.46 187.22L185.54 187.37L185.61 187.53L185.69 187.69L185.76 187.84L185.84 188L185.91 188.16L185.99 188.32L186.06 188.47L186.13 188.63L186.2 188.79L186.27 188.95L186.34 189.11L186.41 189.27L186.48 189.43L186.55 189.59L186.62 189.75L186.69 189.91L186.75 190.07L186.82 190.24L186.88 190.4L186.95 190.56L187.02 190.72L187.08 190.88L187.14 191.05L187.21 191.21L187.27 191.37L187.33 191.54L187.4 191.7L187.46 191.87L187.52 192.03L187.53 192.06L187.54 192.09L187.56 192.16L187.65 192.38L187.67 192.44L187.68 192.47L187.7 192.53L187.72 192.56L187.73 192.59L187.75 192.66L187.76 192.69L187.78 192.75L187.8 192.78L187.81 192.81L187.82 192.84L187.83 192.88L187.84 192.91L187.85 192.94L187.86 192.97L187.88 193L187.89 193.03L187.9 193.06L187.91 193.1L187.92 193.13L187.93 193.16L187.94 193.19L187.95 193.22L187.96 193.26L187.98 193.29L188.03 193.45L188.09 193.61L188.14 193.78L188.19 193.94L188.25 194.1L188.3 194.27L188.35 194.43L188.4 194.6L188.45 194.76L188.5 194.93L188.55 195.09L188.6 195.26L188.65 195.42L188.7 195.59L188.75 195.76L188.79 195.92L188.84 196.09L188.89 196.26L188.93 196.42L188.97 196.59L189.02 196.76L189.06 196.93L189.1 197.1L189.15 197.26L189.19 197.43L189.23 197.6L189.27 197.77L189.31 197.94L189.35 198.11L189.39 198.28L189.42 198.45L189.46 198.62L189.5 198.79L189.53 198.96L189.57 199.13L189.6 199.31L189.64 199.48L189.67 199.65L189.7 199.82L189.74 199.99L189.74 200.03L189.75 200.06L189.75 200.09L189.76 200.12L189.76 200.15L189.77 200.18L189.77 200.21L189.78 200.24L189.78 200.27L189.79 200.3L189.79 200.34L189.8 200.37L189.8 200.4L189.8 200.43L189.81 200.46L189.82 200.52L189.82 200.55L189.83 200.58L189.84 200.65L189.84 200.68L189.85 200.74L189.87 200.86L189.88 200.96L189.89 200.99L189.89 201.05L189.9 201.11L189.91 201.14L189.91 201.17L189.92 201.2L189.92 201.24L189.95 201.42L189.98 201.6L190.01 201.78L190.03 201.96L190.06 202.15L190.08 202.33L190.11 202.51L190.13 202.69L190.16 202.88L190.18 203.06L190.2 203.24L190.23 203.43L190.25 203.61L190.27 203.8L190.29 203.98L190.31 204.16L190.33 204.35L190.35 204.53L190.37 204.72L190.38 204.9L190.4 205.09L190.41 205.28L190.43 205.46L190.44 205.65L190.46 205.84L190.47 206.02L190.48 206.21L190.49 206.4L190.5 206.58L190.51 206.77L190.52 206.96L190.53 207.15L190.54 207.33L190.54 207.52L190.55 207.71L190.55 207.9L190.55 208.09L190.56 208.28L190.56 208.47L190.56 208.66L190.56 208.78L190.56 208.9L190.56 209.02L190.55 209.15L190.55 209.27L190.55 209.39L190.55 209.51L190.55 209.64L190.54 209.76L190.54 209.88L190.54 210L190.53 210.12L190.53 210.24L190.52 210.37L190.52 210.49L190.51 210.61L190.51 210.73L190.5 210.85L190.49 210.97L190.49 211.09L190.48 211.21L190.47 211.33L190.47 211.46L190.46 211.58L190.45 211.7L190.44 211.82L190.43 211.94L190.42 212.06L190.41 212.18L190.4 212.3L190.39 212.42L190.38 212.54L190.37 212.66L190.36 212.78L190.35 212.9L190.34 213.02L190.33 213.14L190.32 213.26L190.31 213.38L190.29 213.49L190.29 213.5L190.29 213.5L190.29 213.51L190.29 213.51L190.29 213.52L190.29 213.52L190.28 213.56L190.27 213.61L190.26 213.64L190.26 213.65L190.23 213.97L190.19 214.29L190.15 214.61L190.11 214.93L190.07 215.25L190.03 215.57L189.98 215.89L189.93 216.21L189.88 216.53L189.83 216.84L189.77 217.16L189.71 217.47L189.65 217.79L189.59 218.1L189.53 218.42L189.46 218.73L189.4 219.04L189.33 219.35L189.26 219.66L189.18 219.97L189.11 220.28L189.03 220.59L188.95 220.9L188.87 221.2L188.78 221.51L188.7 221.82L188.61 222.12L188.52 222.43L188.43 222.73L188.34 223.03L188.24 223.33L188.14 223.63L188.04 223.93L187.94 224.23L187.84 224.53L187.73 224.83L187.63 225.13L187.52 225.42L187.41 225.72L187.29 226.01L187.29 226.02L187.28 226.04L187.27 226.06L187.27 226.07L187.26 226.09L187.24 226.13L187.22 226.18L187.21 226.21L187.2 226.22L187.19 226.24L187.18 226.26L187.18 226.28L187.17 226.29L187.12 226.42L187.06 226.56L187.01 226.69L186.95 226.82L186.9 226.96L186.84 227.09L186.79 227.22L186.73 227.36L186.68 227.49L186.62 227.62L186.56 227.75L186.51 227.89L186.45 228.02L186.39 228.15L186.33 228.28L186.27 228.41L186.21 228.54L186.15 228.67L186.09 228.8L186.03 228.93L185.97 229.06L185.91 229.19L185.85 229.32L185.78 229.45L185.72 229.58L185.66 229.71L185.59 229.84L185.53 229.97L185.47 230.09L185.4 230.22L185.34 230.35L185.27 230.48L185.21 230.6L185.14 230.73L185.07 230.86L185.01 230.99L184.94 231.11L184.87 231.24L184.8 231.37L184.73 231.49L184.72 231.52L184.71 231.54L184.69 231.57L184.68 231.59L184.67 231.62L184.65 231.64L184.64 231.67L184.62 231.69L184.61 231.72L184.6 231.74L184.58 231.76L184.57 231.79L184.55 231.81L184.54 231.84L184.53 231.86L184.51 231.89L184.5 231.91L184.48 231.94L184.47 231.96L184.44 232.01L184.41 232.06L184.35 232.15L184.34 232.18L184.31 232.23L184.28 232.27L184.27 232.3L184.25 232.32L184.24 232.35L184.22 232.37L184.21 232.4L184.2 232.42L184.18 232.45L184.17 232.47L184.11 232.58L184.05 232.68L183.98 232.79L183.92 232.89L183.86 233L183.8 233.1L183.74 233.21L183.67 233.32L183.61 233.42L183.55 233.52L183.48 233.63L183.42 233.73L183.35 233.84L183.29 233.94L183.22 234.05L183.16 234.15L183.09 234.25L183.03 234.36L182.96 234.46L182.9 234.56L182.83 234.67L182.76 234.77L182.7 234.87L182.63 234.97L182.56 235.08L182.5 235.18L182.43 235.28L182.36 235.38L182.29 235.48L182.22 235.58L182.15 235.68L182.08 235.79L182.01 235.89L181.94 235.99L181.87 236.09L181.8 236.19L181.73 236.29L181.66 236.39L181.59 236.49L181.52 236.59L181.49 236.62L181.47 236.65L181.45 236.68L181.43 236.71L181.41 236.73L181.39 236.76L181.37 236.79L181.34 236.82L181.32 236.85L181.3 236.88L181.28 236.91L181.26 236.94L181.23 236.97L181.21 237L181.19 237.03L181.17 237.06L181.15 237.09L181.12 237.12L181.1 237.15L181.08 237.18L181.06 237.2L181.04 237.23L181.01 237.26L180.99 237.29L180.97 237.32L180.95 237.35L180.92 237.38L180.9 237.41L180.88 237.44L180.86 237.47L180.84 237.5L180.81 237.53L180.79 237.55L180.77 237.58L180.72 237.64L180.7 237.67L180.68 237.7L180.66 237.73L180.63 237.76L180.56 237.85L180.49 237.94L180.42 238.03L180.35 238.12L180.28 238.21L180.21 238.3L180.14 238.39L180.07 238.48L179.99 238.57L179.92 238.66L179.85 238.75L179.78 238.83L179.71 238.92L179.63 239.01L179.56 239.1L179.49 239.19L179.41 239.27L179.34 239.36L179.27 239.45L179.19 239.54L179.12 239.62L179.04 239.71L178.97 239.8L178.89 239.88L178.82 239.97L178.74 240.06L178.67 240.14L178.59 240.23L178.51 240.32L178.44 240.4L178.36 240.49L178.28 240.57L178.21 240.66L178.13 240.74L178.05 240.83L177.97 240.91L177.9 241L177.82 241.08L177.74 241.16L177.66 241.25L177.63 241.28L177.61 241.31L177.58 241.34L177.55 241.37L177.52 241.4L177.5 241.43L177.47 241.46L177.41 241.52L177.33 241.6L177.27 241.66L177.25 241.69L177.22 241.72L177.19 241.75L177.16 241.78L177.13 241.81L177.11 241.84L177.08 241.87L177.05 241.9L177.02 241.93L176.99 241.96L176.97 241.99L176.94 242.02L176.91 242.05L176.88 242.08L176.85 242.11L176.83 242.14L176.8 242.17L176.77 242.2L176.74 242.22L176.71 242.25L176.68 242.28L176.65 242.31L176.62 242.34L176.6 242.37L176.57 242.4L176.54 242.43L176.46 242.51L176.38 242.58L176.3 242.66L176.22 242.74L176.13 242.82L176.05 242.9L175.97 242.98L175.89 243.06L175.81 243.13L175.72 243.21L175.64 243.29L175.56 243.37L175.48 243.44L175.39 243.52L175.31 243.6L175.23 243.67L175.14 243.75L175.06 243.82L174.97 243.9L174.89 243.98L174.8 244.05L174.72 244.13L174.64 244.2L174.55 244.28L174.46 244.35L174.38 244.43L174.29 244.5L174.21 244.57L174.12 244.65L174.04 244.72L173.95 244.79L173.86 244.87L173.78 244.94L173.69 245.01L173.6 245.09L173.52 245.16L173.43 245.23L173.34 245.31L173.25 245.38L173.17 245.45L173.13 245.48L173.1 245.5L173.07 245.53L173.04 245.55L173.01 245.58L172.98 245.61L172.95 245.63L172.92 245.66L172.89 245.69L172.85 245.71L172.82 245.74L172.7 245.84L172.67 245.87L172.64 245.9L172.61 245.92L172.58 245.95L172.55 245.98L172.52 246L172.48 246.03L172.45 246.05L172.42 246.08L172.39 246.11L172.36 246.13L172.33 246.16L172.3 246.18L172.27 246.21L172.24 246.24L172.2 246.26L172.17 246.29L172.14 246.31L172.11 246.34L172.08 246.36L172.05 246.39L172.01 246.41L171.98 246.44L171.95 246.46L171.9 246.5L171.88 246.52L171.86 246.53L171.85 246.54L171.83 246.56L171.81 246.57L171.8 246.59L171.78 246.6L171.76 246.61L171.74 246.63L171.73 246.64L171.71 246.66L171.69 246.67L171.68 246.69L171.66 246.7L171.64 246.72L171.63 246.73L171.57 246.78L171.54 246.81L171.51 246.84L171.49 246.85L171.47 246.86L171.45 246.88L171.44 246.89L171.42 246.91L171.4 246.92L171.39 246.94L171.37 246.95L171.35 246.97L171.33 246.98L171.32 246.99L171.3 247.01L171.28 247.02L171.26 247.04L171.24 247.05L171.23 247.06L172.05 248.04L172.89 249L173.74 249.96L174.61 250.9L175.48 251.82L176.37 252.74L177.28 253.64L178.19 254.53L179.12 255.4L180.05 256.26L181 257.11L181.97 257.95L182.94 258.77L183.92 259.58L184.92 260.37L185.92 261.15L186.94 261.91L187.97 262.67L189 263.4L190.05 264.12L191.11 264.83L192.18 265.52L193.25 266.2L194.34 266.86L195.44 267.51L196.54 268.14L197.66 268.76L198.78 269.36L199.91 269.95L201.05 270.52L202.2 271.07L203.36 271.61L204.52 272.13L205.7 272.63L206.88 273.12L208.07 273.59L209.26 274.05L210.46 274.49L211.67 274.91L212.89 275.31L213.17 275.41L213.44 275.51L213.71 275.62L213.98 275.74L214.24 275.86L214.5 275.99L214.75 276.13L215 276.28L215.24 276.43L215.48 276.59L215.71 276.76L215.94 276.93L216.16 277.11L216.38 277.29L216.59 277.48L216.79 277.68L216.99 277.88L217.19 278.08L217.37 278.3L217.55 278.52L217.73 278.74L217.9 278.97L218.06 279.2L218.21 279.44L218.36 279.68L218.5 279.92L218.64 280.17L218.77 280.43L218.89 280.69L219 280.95L219.11 281.21L219.2 281.48L219.3 281.76L219.38 282.03L219.45 282.31L219.52 282.59L219.58 282.88L219.63 283.17L219.67 283.46L219.71 283.75L219.73 284.04L219.75 284.33L219.76 284.63L219.76 284.92L219.75 285.21L219.73 285.5L219.7 285.78L219.67 286.07L219.63 286.35L219.58 286.63L219.52 286.91L219.45 287.19L219.38 287.47L219.3 287.74L219.21 288.01L219.11 288.27L219.01 288.54L218.9 288.8L218.78 289.06L218.65 289.31L218.52 289.56L218.38 289.81L218.23 290.05L218.08 290.29L217.92 290.52L217.75 290.75L217.57 290.97L217.39 291.19L217.2 291.41L217.01 291.62L216.81 291.82L216.6 292.02L216.39 292.21L216.17 292.4L215.95 292.58L215.72 292.76L215.48 292.93L215.24 293.09L214.99 293.25L214.74 293.39L212.13 294.92L209.58 296.52L207.07 298.18L204.62 299.89L202.23 301.67L199.88 303.51L197.59 305.4L195.36 307.35L193.18 309.36L191.06 311.42L189 313.53L186.99 315.69L185.05 317.89L183.16 320.15L181.34 322.45L179.57 324.8L177.88 327.19L176.24 329.63L174.67 332.1L173.16 334.61L171.72 337.17L170.34 339.75L169.03 342.38L167.8 345.04L166.62 347.73L165.52 350.45L164.49 353.2L163.53 355.98L162.65 358.79L161.83 361.62L161.09 364.48L160.43 367.36L159.84 370.26L159.32 373.18L158.89 376.12L158.53 379.08L158.25 382.05L158.04 385.04L157.92 388.04L157.88 391.06L157.97 395.27L158.22 399.44L158.64 403.56L159.22 407.63L159.96 411.65L160.86 415.61L161.91 419.52L163.11 423.36L164.45 427.13L165.93 430.84L167.56 434.47L169.32 438.03L171.21 441.51L173.23 444.9L175.38 448.21L177.64 451.43L180.03 454.56L182.54 457.59L185.15 460.53L187.88 463.36L190.71 466.08L193.64 468.7L196.67 471.2L199.8 473.59L203.02 475.86L206.33 478.01L209.73 480.03L213.2 481.92L216.76 483.68L220.39 485.3L224.1 486.79L227.87 488.13L231.71 489.33L235.62 490.38L239.58 491.27L243.6 492.01L247.67 492.59L251.79 493.01L255.96 493.27L260.17 493.35L389.49 493.35L392.08 493.33L394.66 493.27L397.23 493.18L399.79 493.04L402.35 492.86L404.91 492.64L407.45 492.39L409.99 492.09L412.52 491.76L415.04 491.38L417.55 490.97L420.06 490.52L422.55 490.03L425.03 489.51L427.51 488.94L429.97 488.34L432.43 487.7L434.87 487.02L437.3 486.3L439.72 485.55L442.12 484.75L444.52 483.92L446.9 483.05L449.27 482.15L451.63 481.21L453.97 480.23L456.3 479.21L458.61 478.16L460.91 477.07L463.19 475.94L465.46 474.78L467.71 473.58L469.95 472.35L472.17 471.07L474.37 469.77L476.56 468.42L478.73 467.04L480.88 465.62L483.01 464.17L485.13 462.69L488.38 460.29L491.56 457.82L494.66 455.28L497.68 452.66L500.61 449.97L503.47 447.21L506.24 444.39L508.93 441.5L511.53 438.55L514.05 435.54L516.48 432.47L518.82 429.34L521.07 426.16L523.24 422.92L525.31 419.64L527.3 416.3L529.19 412.92L530.99 409.49L532.7 406.01L534.31 402.5L535.83 398.94L537.25 395.35L538.58 391.72L539.8 388.06L540.93 384.36L541.97 380.64L542.9 376.88L543.73 373.1L544.45 369.3L545.08 365.47L545.6 361.62L546.02 357.75L546.33 353.87L546.54 349.97L546.64 346.05L546.63 342.13L546.51 338.2L546.28 334.25L545.95 330.31L545.5 326.36L545.13 323.85L545.12 323.76L545.1 323.67L545.09 323.58L545.08 323.49L545.06 323.4L545.05 323.32L545.04 323.23L545.03 323.14L545.01 323.05L545 322.96L544.99 322.86L544.97 322.77L544.96 322.68L544.95 322.59L544.93 322.5L544.92 322.41L544.91 322.32L544.89 322.23L544.88 322.14L544.86 322.05L544.85 321.96L544.84 321.87L544.82 321.78L544.81 321.69L544.79 321.6L544.78 321.51L544.77 321.42L544.75 321.33L544.74 321.24L544.72 321.15L544.71 321.06L544.69 320.97L544.68 320.87L544.66 320.78L544.65 320.69L544.63 320.6L544.62 320.51L544.6 320.42L544.59 320.33L544.57 320.24L544.55 320.14L544.54 320.03L544.52 319.93L544.5 319.83L544.48 319.73L544.46 319.63L544.45 319.53L544.43 319.43L544.41 319.33L544.39 319.23L544.37 319.13L544.36 319.03L544.34 318.93L544.32 318.83L544.3 318.73L544.28 318.63L544.26 318.53L544.24 318.43L544.23 318.33L544.21 318.24L544.19 318.14L544.17 318.04L544.15 317.94L544.13 317.84L544.11 317.75L544.09 317.65L544.08 317.55L544.06 317.46L544.04 317.36L544.02 317.26L544 317.17L543.98 317.07L543.96 316.97L543.94 316.88L543.92 316.78L543.9 316.68L543.88 316.59L543.86 316.49L543.85 316.4L543.83 316.3L543.36 314.13L543.34 314.01L543.31 313.9L543.29 313.78L543.26 313.67L543.24 313.55L543.21 313.44L543.19 313.33L543.16 313.21L543.14 313.1L543.11 312.99L543.09 312.87L543.06 312.76L543.04 312.65L543.01 312.54L542.99 312.43L542.96 312.32L542.94 312.21L542.91 312.1L542.89 311.99L542.86 311.88L542.84 311.77L542.81 311.66L542.78 311.55L542.76 311.44L542.73 311.33L542.71 311.22L542.68 311.11L542.66 311.01L542.63 310.9L542.6 310.79L542.58 310.68L542.55 310.58L542.53 310.47L542.5 310.36L542.47 310.25L542.45 310.15L542.42 310.04L542.39 309.93L542.36 309.82L542.34 309.72L542.26 309.43L542.19 309.15L542.12 308.87L542.05 308.6L541.97 308.32L541.9 308.05L541.83 307.78L541.76 307.51L541.68 307.25L541.61 306.99L541.54 306.73L541.47 306.47L541.4 306.21L541.33 305.96L541.25 305.7L541.18 305.45L541.11 305.2L541.04 304.95L540.97 304.71L540.9 304.46L540.82 304.22L540.75 303.98L540.68 303.74L540.61 303.5L540.54 303.26L540.46 303.02L540.39 302.79L540.32 302.55L540.24 302.32L540.17 302.08L540.1 301.85L540.03 301.62L539.95 301.39L539.88 301.16L539.8 300.93L539.73 300.7L539.66 300.47L539.58 300.24L539.51 300.01L539.43 299.78L539.43 299.77L539.42 299.75L539.41 299.72L539.4 299.68L539.38 299.63L539.36 299.56L539.33 299.47L539.27 299.26L539.23 299.14L539.21 299.07L539.19 299.02L539.18 298.98L539.17 298.95L539.16 298.93L539.16 298.92L538.89 298.09L538.29 296.37L537.66 294.67L537.01 292.97L536.33 291.29L535.64 289.61L534.92 287.94L534.18 286.28L533.42 284.63L532.63 282.99L531.83 281.36L531 279.74L530.15 278.13L529.28 276.53L528.39 274.95L527.48 273.37L526.55 271.81L525.6 270.26L524.63 268.71L523.64 267.19L522.63 265.67L521.6 264.17L520.55 262.68L519.48 261.2L518.4 259.74L517.29 258.29L516.17 256.85L515.02 255.43L513.86 254.03L512.68 252.64L511.49 251.26L510.27 249.9L509.04 248.55L507.79 247.22L506.52 245.9L505.24 244.61L503.94 243.32L502.62 242.06L501.29 240.81L499.94 239.58L498.57 238.36L497.92 240.71L497.19 243.03L496.39 245.32L495.52 247.57L494.57 249.78L493.55 251.96L492.47 254.1L491.32 256.19L490.1 258.25L488.82 260.26L487.48 262.22L486.08 264.14L484.61 266.02L483.09 267.84L481.51 269.61L479.87 271.33L478.19 273L476.44 274.61L474.65 276.16L472.81 277.66L470.91 279.1L468.98 280.48L466.99 281.79L464.96 283.04L462.89 284.23L460.78 285.35L458.62 286.41L456.43 287.39L454.2 288.3L451.94 289.15L449.64 289.91L447.31 290.61L444.95 291.23L442.55 291.76L440.13 292.23L437.68 292.61L435.21 292.9L432.71 293.12L430.19 293.25L427.64 293.29L427.46 293.29L427.29 293.29L427.12 293.29L426.94 293.29L426.77 293.29L426.6 293.29L426.43 293.28L426.25 293.28L426.08 293.28L425.9 293.27L425.73 293.27L425.56 293.26L425.38 293.26L425.21 293.25L425.04 293.25L424.86 293.24L424.69 293.23L424.51 293.23L424.34 293.22L424.16 293.21L423.99 293.2L423.82 293.19L423.64 293.18L423.47 293.17L423.29 293.16L423.12 293.15L422.94 293.14L422.77 293.13L422.59 293.12L422.42 293.11L422.24 293.09L422.06 293.08L421.89 293.07L421.71 293.05L421.54 293.04L421.36 293.02L421.19 293.01L421.01 292.99L420.83 292.98L420.66 292.96L383.87 289.49L383.79 289.49L297.43 281.33L297.34 281.32L297.24 281.31L297.15 281.3L297.06 281.29L296.97 281.27L296.88 281.26L296.79 281.24L296.7 281.23L296.61 281.21L296.53 281.19L296.44 281.17L296.35 281.15L296.26 281.13L296.18 281.11L296.09 281.09L296 281.07L295.92 281.04L295.83 281.02L295.75 280.99L295.66 280.96L295.58 280.94L295.49 280.91L295.41 280.88L295.32 280.85L295.24 280.82L295.16 280.79L295.07 280.76L294.99 280.73L294.91 280.69L294.82 280.66L294.74 280.63L294.66 280.59L294.58 280.56L294.5 280.52L294.42 280.49L294.34 280.45L294.26 280.41L294.17 280.37L294.09 280.34L294.02 280.3L293.99 280.29L293.97 280.27L293.94 280.26L293.92 280.25L293.89 280.23L293.87 280.22L293.84 280.21L293.82 280.19L293.8 280.18L293.77 280.17L293.75 280.15L293.73 280.14L293.7 280.13L293.68 280.11L293.66 280.1L293.63 280.08L293.61 280.07L293.59 280.05L293.56 280.04L293.54 280.03L293.52 280.01L293.5 280L293.47 279.98L293.45 279.97L293.43 279.95L293.4 279.94L293.38 279.92L293.34 279.89L293.25 279.83L293.2 279.8L293.18 279.78L293.15 279.77L293.13 279.75L293.11 279.74L293.08 279.72L293.03 279.69L292.98 279.66L292.93 279.62L292.88 279.59L292.83 279.56L292.78 279.52L292.73 279.49L292.68 279.45L292.63 279.42L292.58 279.38L292.54 279.35L292.49 279.31L292.44 279.28L292.39 279.24L292.34 279.21L292.3 279.17L292.25 279.13L292.2 279.09L292.15 279.06L292.11 279.02L292.06 278.98L292.01 278.94L291.97 278.9L291.92 278.86L291.88 278.82L291.83 278.78L291.79 278.74L291.74 278.7L291.7 278.66L291.65 278.62L291.61 278.58L291.57 278.54L291.52 278.5L291.48 278.46L291.44 278.41L291.39 278.37L291.35 278.33L291.31 278.28L291.27 278.24L291.22 278.2L291.2 278.17L291.16 278.13L291.14 278.11L291.12 278.09L291.1 278.07L291.08 278.05L291.06 278.03L291.04 278L291.02 277.98L291 277.96L290.98 277.94L290.96 277.92L290.94 277.9L290.93 277.88L290.91 277.86L290.89 277.83L290.87 277.81L290.85 277.79L290.83 277.77L290.81 277.75L290.79 277.73L290.77 277.7L290.75 277.68L290.73 277.66L290.72 277.64L290.7 277.62L290.68 277.6L290.66 277.57L290.64 277.55L290.62 277.53L290.61 277.51L290.59 277.48L290.57 277.46L290.55 277.44L290.53 277.41L290.52 277.39L290.5 277.37L290.48 277.34L290.46 277.32L290.43 277.27L290.39 277.22L290.35 277.17L290.31 277.11L290.28 277.06L290.24 277.01L290.21 276.96L290.17 276.9L290.14 276.85L290.1 276.8L290.07 276.74L290.03 276.69L290 276.63L289.97 276.58L289.94 276.52L289.91 276.47L289.87 276.41L289.84 276.36L289.81 276.3L289.78 276.25L289.75 276.19L289.72 276.13L289.69 276.08L289.66 276.02L289.63 275.96L289.61 275.91L289.58 275.85L289.55 275.79L289.52 275.73L289.5 275.67L289.47 275.62L289.44 275.56L289.42 275.5L289.39 275.44L289.36 275.38L289.34 275.32L289.31 275.26L289.29 275.2L289.26 275.14L289.24 275.08L289.23 275.06L289.22 275.04L289.21 275.01L289.2 274.99L289.19 274.97L289.18 274.95L289.17 274.93L289.16 274.91L289.15 274.89L289.14 274.86L289.13 274.84L289.11 274.8L289.07 274.72L289.06 274.7L289.05 274.68L289.04 274.65L289.03 274.63L289.02 274.61L289.01 274.59L289 274.57L288.99 274.55L288.98 274.53L288.97 274.51L288.96 274.49L288.95 274.46L288.94 274.44L288.93 274.42L288.92 274.4L288.91 274.38L288.9 274.35L288.9 274.33L288.89 274.31L288.88 274.29L288.87 274.26L288.87 274.24L288.86 274.22L288.86 274.21L288.85 274.21L288.85 274.2L288.85 274.19L288.85 274.18L288.84 274.17L288.84 274.16L288.83 274.15L288.83 274.14L288.83 274.14L288.82 274.13L288.82 274.12L288.8 274.08L288.79 274.06L288.79 274.05L288.78 274.05L288.78 274.04L288.77 274.03L288.77 274.02L288.77 274.01L288.76 274L288.76 273.99L288.76 273.98L288.76 273.98L288.74 273.9L288.72 273.81L288.7 273.73L288.68 273.65L288.66 273.57L288.64 273.49L288.62 273.4L288.61 273.32L288.59 273.24L288.58 273.16L288.57 273.07L288.55 272.99L288.54 272.91L288.53 272.83L288.52 272.74L288.51 272.66L288.5 272.58L288.49 272.5L288.49 272.41L288.48 272.33L288.47 272.25L288.47 272.17L288.46 272.08L288.46 272L288.46 271.92L288.45 271.84L288.45 271.75L288.45 271.67L288.45 271.59L288.45 271.51L288.45 271.43L288.45 271.34L288.46 271.26L288.46 271.18L288.46 271.1L288.47 271.02L288.47 270.93L288.47 270.85L288.48 270.77L288.49 270.69L288.49 270.68L288.49 270.67L288.49 270.67L288.48 270.66L288.48 270.65L288.48 270.64L288.48 270.63L288.48 270.62L288.47 270.61L288.47 270.59L288.47 270.57L288.47 270.56L288.46 270.56L288.46 270.55L288.46 270.54L288.46 270.53L288.46 270.53L288.46 270.52L288.46 270.51L288.46 270.5L288.46 270.49L288.47 270.47L288.47 270.46L288.47 270.44L288.48 270.43L288.48 270.42L288.48 270.4L288.49 270.39L288.49 270.37L288.5 270.36L288.5 270.35L288.5 270.33L288.51 270.32L288.51 270.3L288.52 270.29L288.52 270.28L288.53 270.26L288.53 270.25L288.55 270.22L288.56 270.18L288.57 270.17L288.57 270.15L288.58 270.14L288.58 270.13L288.59 270.11L288.59 270.1L288.6 270.09L288.6 270.07L288.61 270.06L288.61 270.05L288.61 270.03L288.62 270.02L288.62 270L288.63 269.99L288.63 269.97L288.63 269.96L288.63 269.95L288.64 269.87L288.66 269.8L288.67 269.73L288.68 269.66L288.69 269.59L288.71 269.52L288.72 269.45L288.74 269.38L288.75 269.31L288.77 269.24L288.78 269.17L288.8 269.1L288.82 269.04L288.83 268.97L288.85 268.9L288.87 268.83L288.89 268.76L288.91 268.69L288.93 268.62L288.95 268.56L288.97 268.49L288.99 268.42L289.01 268.35L289.04 268.28L289.06 268.22L289.08 268.15L289.11 268.08L289.13 268.02L289.16 267.95L289.18 267.88L289.21 267.82L289.23 267.75L289.26 267.68L289.29 267.62L289.32 267.55L289.34 267.49L289.37 267.42L289.4 267.35L289.43 267.29L289.46 267.22L289.48 267.2L289.49 267.17L289.5 267.15L289.51 267.12L289.52 267.1L289.54 267.08L289.55 267.05L289.56 267.03L289.57 267L289.59 266.98L289.6 266.96L289.61 266.93L289.62 266.91L289.64 266.88L289.65 266.86L289.66 266.84L289.67 266.81L289.69 266.79L289.7 266.77L289.71 266.74L289.72 266.72L289.74 266.7L289.75 266.67L289.76 266.65L289.78 266.63L289.79 266.6L289.8 266.58L289.82 266.56L289.83 266.53L289.84 266.51L289.86 266.49L289.87 266.46L289.88 266.44L289.9 266.42L289.91 266.39L289.93 266.37L289.94 266.35L289.95 266.32L289.97 266.3L289.98 266.28L290.02 266.22L290.05 266.17L290.09 266.12L290.12 266.06L290.16 266.01L290.19 265.96L290.23 265.9L290.26 265.85L290.3 265.8L290.34 265.75L290.38 265.69L290.41 265.64L290.45 265.59L290.49 265.54L290.53 265.49L290.57 265.44L290.61 265.39L290.65 265.34L290.69 265.29L290.73 265.24L290.77 265.19L290.81 265.14L290.85 265.09L290.89 265.04L290.94 265L290.98 264.95L291.02 264.9L291.06 264.85L291.11 264.81L291.15 264.76L291.2 264.71L291.24 264.67L291.29 264.62L291.33 264.57L291.38 264.53L291.42 264.48L291.47 264.44L291.52 264.39L291.56 264.35L291.61 264.3L291.63 264.28L291.65 264.27L291.66 264.25L291.68 264.23L291.7 264.22L291.72 264.2L291.73 264.18L291.75 264.16L291.77 264.15L291.79 264.13L291.8 264.11L291.82 264.09L291.84 264.08L291.89 264.02L291.92 263.99L291.94 263.97L291.96 263.95L291.97 263.94L291.99 263.92L292.01 263.9L292.02 263.89L292.04 263.87L292.06 263.85L292.08 263.83L292.09 263.82L292.11 263.8L292.13 263.78L292.15 263.77L292.17 263.75L292.18 263.74L292.2 263.72L292.22 263.7L292.24 263.69L292.26 263.67L292.28 263.66L292.3 263.64L292.32 263.63L292.33 263.62L292.34 263.61L292.34 263.6L292.35 263.6L292.36 263.59L292.37 263.58L292.38 263.57L292.39 263.57L292.39 263.56L292.4 263.55L292.41 263.54L292.42 263.53L292.43 263.53L292.43 263.52L292.44 263.51L292.46 263.49L292.49 263.46L292.5 263.44L292.52 263.43L292.53 263.42L292.54 263.41L292.54 263.4L292.55 263.39L292.56 263.38L292.57 263.38L292.58 263.37L292.59 263.36L292.59 263.35L292.6 263.34L292.61 263.34L292.62 263.33L292.63 263.32L292.64 263.32L292.65 263.31L294.56 261.93L296.44 260.5L298.26 259.04L300.05 257.53L301.78 255.99L303.48 254.4L305.12 252.78L306.73 251.12L308.28 249.43L309.79 247.7L311.25 245.93L312.66 244.14L314.02 242.31L315.34 240.45L316.61 238.55L317.82 236.63L318.99 234.68L320.11 232.71L321.17 230.7L322.19 228.67L323.15 226.62L324.06 224.54L324.92 222.43L325.72 220.31L326.47 218.16L327.17 215.99L327.81 213.81L328.4 211.6L328.94 209.38L329.41 207.14L329.83 204.88L330.2 202.61L330.51 200.32L330.76 198.02L330.95 195.71L331.08 193.39L331.16 191.05L331.17 188.71L331.13 186.36L331.03 184L330.77 180.59L330.38 177.21L329.86 173.87L329.22 170.57L328.46 167.31L327.57 164.09L326.57 160.92L325.46 157.8L324.23 154.73L322.9 151.72L321.46 148.76L319.91 145.86L318.27 143.02L316.52 140.25L314.68 137.54L312.75 134.9L310.72 132.34L308.6 129.84L306.4 127.43L304.12 125.09L301.75 122.84L299.31 120.67L296.79 118.59L294.2 116.6L291.53 114.69L288.8 112.89L286.01 111.18L283.15 109.57L280.23 108.06L277.25 106.66L274.21 105.36L271.13 104.18L267.99 103.11L264.81 102.15L261.58 101.31L258.31 100.58L255 99.99L251.65 99.51L248.27 99.17L244.85 98.95L241.73 98.85L238.62 98.87L235.54 98.98ZM135.44 222.45L134.78 222.55L134.13 222.7L133.51 222.92L132.92 223.18L132.36 223.5L131.83 223.87L131.34 224.28L130.89 224.73L130.47 225.22L130.11 225.75L129.79 226.31L129.52 226.91L129.31 227.52L129.16 228.17L129.06 228.83L129.03 229.52L129.05 229.97L129.13 230.43L129.25 230.87L129.42 231.32L129.64 231.75L129.91 232.19L130.23 232.62L130.6 233.04L131.02 233.45L131.48 233.87L132 234.27L132.56 234.68L133.18 235.07L133.84 235.47L134.55 235.85L135.31 236.23L136.12 236.61L142.71 236.61L143.13 236.61L143.54 236.6L143.95 236.58L144.37 236.56L144.78 236.53L145.2 236.49L145.62 236.45L146.04 236.4L146.45 236.34L146.87 236.28L147.29 236.21L147.71 236.14L148.13 236.06L148.55 235.97L148.97 235.87L149.39 235.77L149.81 235.66L149.99 235.62L150.16 235.57L150.32 235.53L150.48 235.48L150.64 235.44L150.79 235.4L150.94 235.35L151.08 235.31L151.22 235.27L151.36 235.23L151.49 235.19L151.62 235.15L151.75 235.11L151.87 235.07L151.99 235.02L152.11 234.98L152.23 234.94L152.27 234.92L152.31 234.91L152.35 234.89L152.39 234.87L152.43 234.85L152.47 234.83L152.51 234.82L152.55 234.8L152.59 234.78L152.63 234.76L152.67 234.75L152.75 234.71L152.8 234.69L152.84 234.68L152.88 234.66L152.92 234.64L153.18 234.54L153.44 234.43L153.69 234.32L153.95 234.21L154.2 234.1L154.45 233.99L154.7 233.87L154.95 233.75L155.19 233.63L155.44 233.5L155.68 233.37L155.93 233.24L156.17 233.11L156.41 232.98L156.64 232.85L156.88 232.71L157.11 232.57L157.16 232.54L157.21 232.51L157.26 232.48L157.31 232.45L157.35 232.42L157.4 232.39L157.44 232.35L157.49 232.32L157.53 232.29L157.58 232.26L157.63 232.22L157.67 232.19L157.72 232.16L157.76 232.13L157.81 232.1L157.86 232.07L157.9 232.04L158.08 231.92L158.26 231.8L158.44 231.69L158.61 231.57L158.79 231.45L158.96 231.33L159.14 231.21L159.31 231.08L159.48 230.96L159.65 230.83L159.82 230.71L159.99 230.58L160.15 230.45L160.32 230.32L160.48 230.19L160.64 230.05L160.8 229.92L160.86 229.87L160.92 229.82L160.97 229.77L161.03 229.72L161.08 229.67L161.13 229.62L161.19 229.57L161.24 229.52L161.3 229.47L161.35 229.42L161.4 229.37L161.46 229.31L161.51 229.26L161.56 229.21L161.62 229.16L161.67 229.11L161.73 229.06L161.87 228.93L162.01 228.8L162.15 228.66L162.29 228.53L162.42 228.4L162.56 228.26L162.7 228.13L162.83 227.99L162.97 227.85L163.1 227.71L163.23 227.57L163.36 227.43L163.49 227.29L163.62 227.15L163.75 227.01L163.87 226.86L164 226.72L164.05 226.66L164.1 226.6L164.15 226.54L164.2 226.48L164.25 226.42L164.3 226.36L164.34 226.3L164.39 226.24L164.44 226.18L164.49 226.11L164.54 226.05L164.58 225.99L164.63 225.93L164.73 225.81L164.77 225.75L164.82 225.68L164.94 225.53L165.05 225.38L165.17 225.23L165.28 225.08L165.39 224.92L165.5 224.77L165.61 224.61L165.72 224.46L165.82 224.3L165.93 224.14L166.03 223.98L166.14 223.82L166.24 223.66L166.34 223.5L166.44 223.34L166.54 223.18L166.64 223.02L166.67 222.98L166.69 222.95L166.71 222.91L166.73 222.88L166.75 222.84L166.77 222.81L166.79 222.77L166.81 222.74L166.83 222.7L166.85 222.67L166.87 222.63L166.89 222.6L166.91 222.56L166.93 222.53L166.95 222.49L166.97 222.46L166.99 222.42L136.12 222.42L135.44 222.45ZM237.96 139.41L239.35 139.55L240.73 139.75L242.09 140L243.44 140.3L244.76 140.66L246.06 141.06L247.34 141.52L248.59 142.02L249.82 142.57L251.03 143.17L252.2 143.81L253.35 144.49L254.47 145.22L255.56 145.99L256.62 146.8L257.65 147.64L258.64 148.53L259.6 149.45L260.53 150.41L261.41 151.4L262.26 152.43L263.07 153.49L263.84 154.58L264.56 155.7L265.25 156.85L265.89 158.03L266.48 159.23L267.03 160.46L267.54 161.72L267.99 163L268.4 164.3L268.75 165.62L269.05 166.96L269.31 168.32L269.5 169.7L269.64 171.1L269.73 172.51L269.76 173.93L269.73 175.36L269.64 176.77L269.5 178.16L269.31 179.54L269.05 180.9L268.75 182.25L268.4 183.57L267.99 184.87L267.54 186.15L267.03 187.4L266.48 188.63L265.89 189.84L265.25 191.01L264.56 192.16L263.84 193.29L263.07 194.38L262.26 195.44L261.41 196.46L260.53 197.46L259.6 198.41L258.64 199.34L257.65 200.22L256.62 201.07L255.56 201.88L254.47 202.65L253.35 203.37L252.2 204.06L251.03 204.7L249.82 205.29L248.59 205.84L247.34 206.35L246.06 206.8L244.76 207.21L243.44 207.56L242.09 207.87L240.73 208.12L239.35 208.31L237.96 208.46L236.55 208.54L235.12 208.57L233.7 208.54L232.28 208.46L230.89 208.31L229.51 208.12L228.15 207.87L226.81 207.56L225.49 207.21L224.19 206.8L222.91 206.35L221.65 205.84L220.42 205.29L219.22 204.7L218.04 204.06L216.89 203.37L215.77 202.65L214.68 201.88L213.62 201.07L212.59 200.22L211.6 199.34L210.64 198.41L209.72 197.46L208.83 196.46L207.98 195.44L207.18 194.38L206.41 193.29L205.68 192.16L205 191.01L204.36 189.84L203.76 188.63L203.21 187.4L202.71 186.15L202.25 184.87L201.85 183.57L201.49 182.25L201.19 180.9L200.94 179.54L200.74 178.16L200.6 176.77L200.51 175.36L200.48 173.93L200.51 172.51L200.6 171.1L200.74 169.7L200.94 168.32L201.19 166.96L201.49 165.62L201.85 164.3L202.25 163L202.71 161.72L203.21 160.46L203.76 159.23L204.36 158.03L205 156.85L205.68 155.7L206.41 154.58L207.18 153.49L207.98 152.43L208.83 151.4L209.72 150.41L210.64 149.45L211.6 148.53L212.59 147.64L213.62 146.8L214.68 145.99L215.77 145.22L216.89 144.49L218.04 143.81L219.22 143.17L220.42 142.57L221.65 142.02L222.91 141.52L224.19 141.06L225.49 140.66L226.81 140.3L228.15 140L229.51 139.75L230.89 139.55L232.28 139.41L233.7 139.32L235.12 139.29L236.55 139.32L237.96 139.41ZM140.12 181.1L138.61 181.26L137.1 181.42L135.59 181.57L134.08 181.71L132.57 181.85L131.06 181.97L129.55 182.08L128.03 182.19L126.52 182.29L125 182.38L123.49 182.46L121.97 182.53L120.45 182.59L118.93 182.64L117.41 182.69L115.89 182.72L114.37 182.75L112.85 182.77L111.33 182.78L109.81 182.78L108.29 182.77L106.77 182.75L105.25 182.73L103.73 182.69L102.21 182.65L100.69 182.6L99.16 182.54L97.64 182.47L96.12 182.39L94.6 182.31L93.08 182.21L91.57 182.11L90.05 182L90.18 182.35L90.33 182.71L90.47 183.06L90.62 183.41L90.78 183.76L90.93 184.11L91.1 184.46L91.26 184.8L91.44 185.14L91.61 185.48L91.79 185.82L91.97 186.16L92.16 186.49L92.35 186.82L92.55 187.15L92.75 187.48L92.96 187.8L93.16 188.13L93.38 188.45L93.59 188.76L93.82 189.08L94.04 189.39L94.27 189.71L94.5 190.01L94.74 190.32L94.98 190.62L95.23 190.93L95.47 191.22L95.73 191.52L95.98 191.81L96.25 192.1L96.51 192.39L96.78 192.68L97.05 192.96L97.33 193.24L97.39 193.3L97.46 193.37L97.53 193.44L97.61 193.51L97.69 193.58L97.77 193.66L97.86 193.74L97.95 193.82L98.04 193.9L98.14 193.98L98.25 194.07L98.36 194.15L98.47 194.24L98.58 194.33L98.71 194.43L98.83 194.52L98.96 194.62L99.1 194.72L99.24 194.82L99.38 194.92L99.53 195.03L99.69 195.13L99.85 195.24L100.02 195.35L100.19 195.46L100.36 195.58L100.55 195.69L100.73 195.81L100.93 195.93L101.13 196.05L101.33 196.17L101.54 196.29L101.76 196.41L101.98 196.54L102.21 196.67L102.81 196.99L103.41 197.31L104.02 197.62L104.63 197.92L105.25 198.2L105.87 198.48L106.5 198.76L107.14 199.02L107.78 199.27L108.42 199.52L109.07 199.75L109.73 199.98L110.39 200.19L111.05 200.4L111.72 200.6L112.39 200.78L113.07 200.96L113.75 201.13L114.44 201.29L115.12 201.44L115.82 201.58L116.51 201.72L117.21 201.84L117.92 201.95L118.62 202.05L119.33 202.15L120.04 202.23L120.76 202.3L121.48 202.37L122.2 202.42L122.92 202.47L123.64 202.5L124.37 202.53L125.1 202.54L125.83 202.55L169.95 202.55L169.92 202.41L169.89 202.27L169.86 202.14L169.83 202L169.8 201.87L169.76 201.74L169.73 201.6L169.69 201.47L169.66 201.33L169.62 201.2L169.59 201.07L169.55 200.93L169.51 200.8L169.47 200.67L169.44 200.54L169.4 200.4L169.36 200.27L169.32 200.14L169.28 200.01L169.23 199.88L169.19 199.75L169.15 199.62L169.11 199.49L169.06 199.36L169.02 199.23L168.97 199.1L168.92 198.97L168.88 198.84L168.83 198.72L168.78 198.59L168.73 198.46L168.68 198.33L168.63 198.21L168.58 198.08L168.53 197.96L168.52 197.93L168.5 197.9L168.49 197.87L168.48 197.84L168.46 197.81L168.45 197.78L168.44 197.75L168.42 197.73L168.41 197.7L168.4 197.67L168.38 197.64L168.37 197.62L168.35 197.59L168.34 197.56L168.32 197.53L168.31 197.5L168.29 197.48L168.28 197.45L168.26 197.42L168.25 197.4L168.23 197.37L168.22 197.34L168.2 197.31L168.19 197.29L168.17 197.26L168.16 197.23L168.14 197.2L168.13 197.18L168.11 197.15L168.1 197.12L168.09 197.09L168.07 197.06L168.06 197.04L168.05 197.01L168.03 196.98L167.98 196.88L167.94 196.77L167.89 196.67L167.84 196.57L167.79 196.47L167.74 196.37L167.69 196.26L167.64 196.16L167.59 196.06L167.54 195.96L167.49 195.86L167.44 195.76L167.39 195.66L167.34 195.56L167.28 195.46L167.23 195.36L167.18 195.26L167.12 195.16L167.07 195.06L167.02 194.96L166.96 194.86L166.91 194.77L166.85 194.67L166.8 194.57L166.74 194.47L166.69 194.37L166.63 194.28L166.57 194.18L166.51 194.08L166.45 193.99L166.4 193.89L166.34 193.8L166.28 193.7L166.22 193.61L166.16 193.51L166.13 193.47L166.1 193.43L166.07 193.38L166.04 193.34L166.02 193.3L165.99 193.26L165.96 193.22L165.93 193.17L165.9 193.13L165.87 193.09L165.84 193.05L165.81 193.01L165.78 192.97L165.75 192.93L165.72 192.89L165.69 192.85L165.66 192.81L165.63 192.77L165.6 192.73L165.57 192.69L165.53 192.64L165.5 192.6L165.47 192.56L165.44 192.52L165.38 192.44L165.35 192.4L165.32 192.36L165.29 192.32L165.25 192.28L165.22 192.24L165.19 192.2L165.16 192.16L165.13 192.12L165.1 192.08L165.05 192L164.99 191.93L164.93 191.85L164.88 191.78L164.82 191.71L164.77 191.63L164.71 191.56L164.65 191.49L164.6 191.41L164.54 191.34L164.48 191.27L164.43 191.19L164.37 191.12L164.31 191.05L164.25 190.98L164.2 190.9L164.14 190.83L164.08 190.76L164.02 190.69L163.96 190.62L163.9 190.55L163.84 190.48L163.78 190.41L163.72 190.34L163.66 190.27L163.6 190.2L163.54 190.13L163.48 190.06L163.42 189.99L163.36 189.92L163.3 189.85L163.23 189.78L163.17 189.72L163.11 189.65L163.05 189.58L163.01 189.54L162.97 189.5L162.93 189.46L162.89 189.42L162.85 189.38L162.82 189.34L162.78 189.3L162.74 189.27L162.7 189.23L162.66 189.19L162.62 189.15L162.58 189.11L162.54 189.07L162.51 189.03L162.47 188.99L162.43 188.96L162.39 188.92L162.35 188.88L162.31 188.84L162.27 188.8L162.23 188.76L162.19 188.73L162.15 188.69L162.11 188.65L162.07 188.61L162.03 188.58L161.99 188.54L161.95 188.5L161.91 188.46L161.87 188.43L161.83 188.39L161.79 188.35L161.75 188.31L161.71 188.28L161.67 188.24L161.6 188.18L161.53 188.12L161.47 188.06L161.4 188L161.33 187.94L161.27 187.88L161.2 187.82L161.13 187.76L161.07 187.7L161 187.64L160.93 187.59L160.86 187.53L160.8 187.47L160.73 187.41L160.66 187.35L160.59 187.3L160.52 187.24L160.46 187.18L160.39 187.13L160.32 187.07L160.25 187.01L160.18 186.96L160.11 186.9L160.04 186.84L159.97 186.79L159.9 186.73L159.83 186.68L159.76 186.62L159.69 186.57L159.62 186.51L159.55 186.46L159.48 186.41L159.4 186.35L159.33 186.3L159.26 186.25L159.22 186.21L159.17 186.18L159.13 186.15L159.08 186.11L159.04 186.08L158.99 186.05L158.95 186.02L158.91 185.98L158.86 185.95L158.82 185.92L158.77 185.89L158.73 185.85L158.68 185.82L158.64 185.79L158.59 185.76L158.55 185.73L158.5 185.69L158.46 185.66L158.41 185.63L158.37 185.6L158.32 185.57L158.28 185.54L158.23 185.5L158.19 185.47L158.14 185.44L158.09 185.41L158.05 185.38L158 185.35L157.96 185.32L157.91 185.29L157.86 185.26L157.82 185.23L157.77 185.2L157.73 185.17L157.68 185.14L157.6 185.09L157.52 185.04L157.44 184.99L157.36 184.94L157.28 184.89L157.21 184.84L157.13 184.8L157.05 184.75L156.97 184.7L156.88 184.66L156.8 184.61L156.72 184.56L156.64 184.52L156.56 184.47L156.48 184.43L156.4 184.38L156.32 184.34L156.24 184.29L156.15 184.25L156.07 184.2L155.99 184.16L155.91 184.12L155.82 184.07L155.74 184.03L155.66 183.99L155.58 183.94L155.49 183.9L155.41 183.86L155.33 183.82L155.24 183.78L155.16 183.73L155.08 183.69L154.99 183.65L154.91 183.61L154.83 183.57L154.78 183.55L154.73 183.53L154.69 183.5L154.64 183.48L154.59 183.46L154.55 183.43L154.5 183.41L154.46 183.39L154.41 183.36L154.32 183.32L154.27 183.3L154.23 183.27L154.18 183.25L154.13 183.23L154.09 183.2L154.04 183.18L153.99 183.16L153.95 183.13L153.9 183.11L153.86 183.09L153.81 183.07L153.76 183.05L153.72 183.02L153.67 183L153.62 182.98L153.58 182.96L153.53 182.94L153.48 182.92L153.44 182.9L153.39 182.88L153.34 182.85L153.29 182.83L153.25 182.82L153.2 182.8L153.1 182.75L152.99 182.71L152.89 182.67L152.79 182.64L152.69 182.6L152.58 182.56L152.48 182.52L152.38 182.48L152.27 182.45L152.17 182.41L152.06 182.37L151.96 182.34L151.86 182.3L151.75 182.27L151.65 182.24L151.54 182.2L151.44 182.17L151.33 182.14L151.22 182.1L151.12 182.07L151.01 182.04L150.91 182.01L150.8 181.98L150.69 181.95L150.59 181.92L150.48 181.89L150.37 181.86L150.27 181.83L150.16 181.8L150.05 181.77L149.94 181.74L149.84 181.72L149.73 181.69L149.62 181.66L149.51 181.63L149.48 181.62L149.44 181.61L149.41 181.6L149.37 181.59L149.34 181.58L149.3 181.57L149.27 181.56L149.24 181.55L149.2 181.54L149.17 181.53L149.13 181.52L149.1 181.51L148.96 181.47L148.93 181.45L148.89 181.44L148.86 181.43L148.82 181.42L148.79 181.41L148.75 181.4L148.72 181.39L148.68 181.38L148.65 181.37L148.61 181.36L148.58 181.35L148.55 181.34L148.51 181.33L148.47 181.32L148.44 181.32L148.4 181.31L148.37 181.3L148.33 181.29L148.3 181.28L148.15 181.25L148.01 181.23L147.87 181.2L147.72 181.17L147.58 181.15L147.43 181.12L147.29 181.1L147.14 181.07L146.99 181.05L146.85 181.03L146.7 181.01L146.56 180.99L146.41 180.97L146.26 180.95L146.11 180.93L145.97 180.91L145.82 180.9L145.67 180.88L145.52 180.87L145.38 180.85L145.23 180.84L145.08 180.83L144.93 180.81L144.78 180.8L144.63 180.79L144.48 180.78L144.33 180.77L144.18 180.77L144.03 180.76L143.88 180.75L143.73 180.75L143.58 180.74L143.43 180.74L143.28 180.74L143.13 180.73L141.62 180.92L140.12 181.1ZM232.47 159.41L231.2 159.7L229.97 160.09L228.8 160.59L227.68 161.19L226.61 161.87L225.61 162.64L224.69 163.5L223.83 164.43L223.06 165.42L222.38 166.49L221.78 167.61L221.28 168.79L220.89 170.01L220.6 171.28L220.42 172.59L220.36 173.93L220.42 175.27L220.6 176.58L220.89 177.85L221.28 179.08L221.78 180.26L222.38 181.38L223.06 182.44L223.83 183.44L224.69 184.37L225.61 185.22L226.61 185.99L227.68 186.68L228.8 187.27L229.97 187.77L231.2 188.17L232.47 188.46L233.78 188.64L235.12 188.7L236.46 188.64L237.77 188.46L239.04 188.17L240.27 187.77L241.45 187.27L242.57 186.68L243.63 185.99L244.63 185.22L245.56 184.37L246.41 183.44L247.18 182.44L247.87 181.38L248.46 180.26L248.96 179.08L249.36 177.85L249.65 176.58L249.83 175.27L249.89 173.93L249.83 172.59L249.65 171.28L249.36 170.01L248.96 168.79L248.46 167.61L247.87 166.49L247.18 165.42L246.41 164.43L245.56 163.5L244.63 162.64L243.63 161.87L242.57 161.19L241.45 160.59L240.27 160.09L239.04 159.7L237.77 159.41L236.46 159.23L235.12 159.17L233.78 159.23L232.47 159.41Z" id="b34gwni891"></path></defs><g><g><g><use xlink:href="#aorwoiR05" opacity="1" fill="#000000" fill-opacity="1"></use><g><use xlink:href="#aorwoiR05" opacity="1" fill-opacity="0" stroke="#000000" stroke-width="1" stroke-opacity="0"></use></g></g><g><use xlink:href="#b34gwni891" opacity="1" fill="#000000" fill-opacity="1"></use><g><use xlink:href="#b34gwni891" opacity="1" fill-opacity="0" stroke="#000000" stroke-width="1" stroke-opacity="0"></use></g></g></g></g></svg>